<svg width="40" height="40" viewBox="0 0 40 40" fill="none" xmlns="http://www.w3.org/2000/svg">
<path d="M37.9688 11.6875C37.8268 11.6037 37.6649 11.5594 37.5 11.5594C37.3351 11.5594 37.1732 11.6037 37.0312 11.6875L29.6875 15.8906V14.375C29.6875 12.8003 29.0619 11.2901 27.9484 10.1766C26.8349 9.06306 25.3247 8.4375 23.75 8.4375H3.75C3.16984 8.4375 2.61344 8.66797 2.2032 9.0782C1.79297 9.48844 1.5625 10.0448 1.5625 10.625V25.625C1.5625 27.1997 2.18806 28.7099 3.30155 29.8234C4.41505 30.9369 5.92528 31.5625 7.5 31.5625H27.5C28.0802 31.5625 28.6366 31.332 29.0468 30.9218C29.457 30.5116 29.6875 29.9552 29.6875 29.375V24.1094L37.0312 28.3125C37.1738 28.3948 37.3354 28.4381 37.5 28.4381C37.6646 28.4381 37.8262 28.3948 37.9688 28.3125C38.1114 28.2302 38.2298 28.1117 38.312 27.9691C38.3943 27.8265 38.4376 27.6647 38.4375 27.5V12.5C38.4376 12.3353 38.3943 12.1735 38.312 12.0309C38.2298 11.8883 38.1114 11.7698 37.9688 11.6875V11.6875ZM27.8125 29.375C27.8125 29.4579 27.7796 29.5374 27.721 29.596C27.6624 29.6546 27.5829 29.6875 27.5 29.6875H7.5C6.42382 29.6834 5.3929 29.2541 4.63193 28.4931C3.87095 27.7321 3.44162 26.7012 3.4375 25.625V10.625C3.4375 10.5421 3.47042 10.4626 3.52903 10.404C3.58763 10.3454 3.66712 10.3125 3.75 10.3125H23.75C24.8262 10.3166 25.8571 10.7459 26.6181 11.5069C27.3791 12.2679 27.8084 13.2988 27.8125 14.375V29.375ZM36.5625 25.8906L29.6875 21.9531V18.0469L36.5625 14.1094V25.8906Z" fill="black"/>
</svg>
