<svg width="18" height="17" viewBox="0 0 18 17" fill="none" xmlns="http://www.w3.org/2000/svg">
<rect width="18" height="18" fill="#3F0F3F"/>
<path d="M9 1C10.0609 1 11.0783 1.42143 11.8284 2.17157C12.5786 2.92172 13 3.93913 13 5C13 6.06087 12.5786 7.07828 11.8284 7.82843C11.0783 8.57857 10.0609 9 9 9C7.93913 9 6.92172 8.57857 6.17157 7.82843C5.42143 7.07828 5 6.06087 5 5C5 3.93913 5.42143 2.92172 6.17157 2.17157C6.92172 1.42143 7.93913 1 9 1ZM9 11C13.42 11 17 12.79 17 15V17H1V15C1 12.79 4.58 11 9 11Z" fill="#F8F8F8"/>
</svg>
